STARTFONT 2.1
FONT -Monotype-Gill Sans-Bold-R-Normal--14-140-72-72-P-67-iso8859-1
SIZE 14 72 72
FONTBOUNDINGBOX 18 18 -1 -4

STARTPROPERTIES 22
FOUNDRY "Monotype"
FAMILY_NAME "Gill Sans"
WEIGHT_NAME "Bold"
SLANT "R"
SETWIDTH_NAME "Normal"
ADD_STYLE_NAME ""
PIXEL_SIZE 14
POINT_SIZE 140
RESOLUTION_X 72
RESOLUTION_Y 72
SPACING "P"
AVERAGE_WIDTH 67
CHARSET_REGISTRY "iso8859"
CHARSET_ENCODING "1"
COPYRIGHT "Copyright (c) 1996 Monotype Typography Ltd."
CAP_HEIGHT 12
X_HEIGHT 8
WEIGHT 10
QUAD_WIDTH 11
DEFAULT_CHAR 32
FONT_DESCENT 4
FONT_ASCENT 14
ENDPROPERTIES

CHARS 191

STARTCHAR space
ENCODING 32
SWIDTH 278 0
DWIDTH 5 0
BBX 0 0 0 0
BITMAP
ENDCHAR

STARTCHAR exclam
ENCODING 33
SWIDTH 271 0
DWIDTH 4 0
BBX 2 10 1 0
BITMAP
C0
C0
C0
C0
C0
C0
C0
00
C0
C0
ENDCHAR

STARTCHAR quotedbl
ENCODING 34
SWIDTH 479 0
DWIDTH 7 0
BBX 3 3 2 8
BITMAP
A0
A0
A0
ENDCHAR

STARTCHAR numbersign
ENCODING 35
SWIDTH 584 0
DWIDTH 9 0
BBX 9 10 0 0
BITMAP
1B00
1B00
1B00
7F80
3600
3600
FF00
6C00
6C00
6C00
ENDCHAR

STARTCHAR dollar
ENCODING 36
SWIDTH 542 0
DWIDTH 8 0
BBX 7 12 0 -1
BITMAP
30
7C
B6
B0
F0
78
3C
36
B6
FC
78
30
ENDCHAR

STARTCHAR percent
ENCODING 37
SWIDTH 719 0
DWIDTH 11 0
BBX 9 10 1 0
BITMAP
7080
D980
DB00
7600
0C00
1800
3700
6D80
CD80
8700
ENDCHAR

STARTCHAR ampersand
ENCODING 38
SWIDTH 750 0
DWIDTH 11 0
BBX 10 10 1 0
BITMAP
3C00
6600
6600
7C00
3800
7D80
EF00
C600
EF80
7DC0
ENDCHAR

STARTCHAR quoteright
ENCODING 39
SWIDTH 271 0
DWIDTH 4 0
BBX 2 4 1 6
BITMAP
C0
C0
40
80
ENDCHAR

STARTCHAR parenleft
ENCODING 40
SWIDTH 385 0
DWIDTH 6 0
BBX 5 15 1 -4
BITMAP
08
18
30
60
60
C0
C0
C0
C0
C0
60
60
30
18
08
ENDCHAR

STARTCHAR parenright
ENCODING 41
SWIDTH 385 0
DWIDTH 6 0
BBX 5 15 0 -4
BITMAP
80
C0
60
30
30
18
18
18
18
18
30
30
60
C0
80
ENDCHAR

STARTCHAR asterisk
ENCODING 42
SWIDTH 469 0
DWIDTH 7 0
BBX 5 6 1 4
BITMAP
20
A8
F8
70
F8
A8
ENDCHAR

STARTCHAR plus
ENCODING 43
SWIDTH 584 0
DWIDTH 9 0
BBX 7 7 1 1
BITMAP
10
10
10
FE
10
10
10
ENDCHAR

STARTCHAR comma
ENCODING 44
SWIDTH 271 0
DWIDTH 4 0
BBX 2 4 1 -2
BITMAP
C0
C0
40
80
ENDCHAR

STARTCHAR minus
ENCODING 45
SWIDTH 584 0
DWIDTH 9 0
BBX 7 1 1 4
BITMAP
FE
ENDCHAR

STARTCHAR period
ENCODING 46
SWIDTH 271 0
DWIDTH 4 0
BBX 2 2 1 0
BITMAP
C0
C0
ENDCHAR

STARTCHAR slash
ENCODING 47
SWIDTH 281 0
DWIDTH 4 0
BBX 4 10 0 0
BITMAP
10
10
20
20
20
40
40
40
80
80
ENDCHAR

STARTCHAR zero
ENCODING 48
SWIDTH 552 0
DWIDTH 8 0
BBX 6 10 1 0
BITMAP
78
CC
CC
CC
CC
CC
CC
CC
CC
78
ENDCHAR

STARTCHAR one
ENCODING 49
SWIDTH 552 0
DWIDTH 8 0
BBX 2 10 3 0
BITMAP
C0
C0
C0
C0
C0
C0
C0
C0
C0
C0
ENDCHAR

STARTCHAR two
ENCODING 50
SWIDTH 552 0
DWIDTH 8 0
BBX 6 10 1 0
BITMAP
78
CC
CC
0C
0C
18
30
60
C0
FC
ENDCHAR

STARTCHAR three
ENCODING 51
SWIDTH 552 0
DWIDTH 8 0
BBX 6 10 1 0
BITMAP
78
CC
0C
0C
38
0C
0C
0C
CC
78
ENDCHAR

STARTCHAR four
ENCODING 52
SWIDTH 552 0
DWIDTH 8 0
BBX 7 10 1 0
BITMAP
04
0C
1C
3C
6C
CC
FE
0C
0C
0C
ENDCHAR

STARTCHAR five
ENCODING 53
SWIDTH 552 0
DWIDTH 8 0
BBX 6 10 1 0
BITMAP
7C
60
60
60
78
6C
0C
0C
CC
78
ENDCHAR

STARTCHAR six
ENCODING 54
SWIDTH 552 0
DWIDTH 8 0
BBX 6 10 1 0
BITMAP
18
30
60
60
F8
CC
CC
CC
CC
78
ENDCHAR

STARTCHAR seven
ENCODING 55
SWIDTH 552 0
DWIDTH 8 0
BBX 6 10 1 0
BITMAP
FC
0C
0C
18
18
38
30
30
60
60
ENDCHAR

STARTCHAR eight
ENCODING 56
SWIDTH 552 0
DWIDTH 8 0
BBX 6 10 1 0
BITMAP
78
CC
CC
CC
78
CC
CC
CC
CC
78
ENDCHAR

STARTCHAR nine
ENCODING 57
SWIDTH 552 0
DWIDTH 8 0
BBX 6 10 1 0
BITMAP
78
CC
CC
CC
CC
7C
18
30
30
60
ENDCHAR

STARTCHAR colon
ENCODING 58
SWIDTH 271 0
DWIDTH 4 0
BBX 2 7 1 0
BITMAP
C0
C0
00
00
00
C0
C0
ENDCHAR

STARTCHAR semicolon
ENCODING 59
SWIDTH 271 0
DWIDTH 4 0
BBX 2 9 1 -2
BITMAP
C0
C0
00
00
00
C0
C0
40
80
ENDCHAR

STARTCHAR less
ENCODING 60
SWIDTH 584 0
DWIDTH 9 0
BBX 7 7 1 1
BITMAP
06
18
60
80
60
18
06
ENDCHAR

STARTCHAR equal
ENCODING 61
SWIDTH 584 0
DWIDTH 9 0
BBX 7 5 1 3
BITMAP
FE
00
00
00
FE
ENDCHAR

STARTCHAR greater
ENCODING 62
SWIDTH 584 0
DWIDTH 9 0
BBX 7 7 1 1
BITMAP
C0
30
0C
02
0C
30
C0
ENDCHAR

STARTCHAR question
ENCODING 63
SWIDTH 375 0
DWIDTH 6 0
BBX 4 10 1 0
BITMAP
E0
B0
30
70
60
40
40
00
60
60
ENDCHAR

STARTCHAR at
ENCODING 64
SWIDTH 979 0
DWIDTH 15 0
BBX 12 13 1 -3
BITMAP
1FC0
3060
6730
4FB0
D9B0
D9B0
D9B0
D9B0
D9E0
4EC0
6010
3860
0FC0
ENDCHAR

STARTCHAR A
ENCODING 65
SWIDTH 781 0
DWIDTH 12 0
BBX 11 10 0 0
BITMAP
0E00
0E00
1B00
1B00
3180
3180
7FC0
60C0
C060
C060
ENDCHAR

STARTCHAR B
ENCODING 66
SWIDTH 698 0
DWIDTH 10 0
BBX 8 10 1 0
BITMAP
FC
C6
C6
C6
FC
C6
C3
C3
C3
FE
ENDCHAR

STARTCHAR C
ENCODING 67
SWIDTH 771 0
DWIDTH 12 0
BBX 10 10 1 0
BITMAP
1F80
70C0
6040
C000
C000
C000
C000
6040
70C0
1F80
ENDCHAR

STARTCHAR D
ENCODING 68
SWIDTH 802 0
DWIDTH 12 0
BBX 10 10 1 0
BITMAP
FE00
C380
C180
C0C0
C0C0
C0C0
C0C0
C180
C380
FE00
ENDCHAR

STARTCHAR E
ENCODING 69
SWIDTH 635 0
DWIDTH 10 0
BBX 7 10 1 0
BITMAP
FE
C0
C0
C0
FE
C0
C0
C0
C0
FE
ENDCHAR

STARTCHAR F
ENCODING 70
SWIDTH 604 0
DWIDTH 9 0
BBX 7 10 1 0
BITMAP
FE
C0
C0
C0
FE
C0
C0
C0
C0
C0
ENDCHAR

STARTCHAR G
ENCODING 71
SWIDTH 813 0
DWIDTH 12 0
BBX 10 10 1 0
BITMAP
1F80
70C0
E040
C000
C000
C3C0
C0C0
60C0
70C0
1F80
ENDCHAR

STARTCHAR H
ENCODING 72
SWIDTH 833 0
DWIDTH 12 0
BBX 10 10 1 0
BITMAP
C0C0
C0C0
C0C0
C0C0
FFC0
C0C0
C0C0
C0C0
C0C0
C0C0
ENDCHAR

STARTCHAR I
ENCODING 73
SWIDTH 333 0
DWIDTH 5 0
BBX 2 10 1 0
BITMAP
C0
C0
C0
C0
C0
C0
C0
C0
C0
C0
ENDCHAR

STARTCHAR J
ENCODING 74
SWIDTH 333 0
DWIDTH 5 0
BBX 4 13 -1 -3
BITMAP
30
30
30
30
30
30
30
30
30
30
30
60
C0
ENDCHAR

STARTCHAR K
ENCODING 75
SWIDTH 719 0
DWIDTH 11 0
BBX 9 10 1 0
BITMAP
C180
C300
C600
CC00
D800
F800
CC00
C600
C300
C180
ENDCHAR

STARTCHAR L
ENCODING 76
SWIDTH 615 0
DWIDTH 9 0
BBX 7 10 1 0
BITMAP
C0
C0
C0
C0
C0
C0
C0
C0
C0
FE
ENDCHAR

STARTCHAR M
ENCODING 77
SWIDTH 885 0
DWIDTH 13 0
BBX 11 10 1 0
BITMAP
C060
E0E0
F1E0
DB60
CE60
C460
C060
C060
C060
C060
ENDCHAR

STARTCHAR N
ENCODING 78
SWIDTH 844 0
DWIDTH 13 0
BBX 11 10 1 0
BITMAP
C060
E060
F060
D860
CC60
C660
C360
C1E0
C0E0
C060
ENDCHAR

STARTCHAR O
ENCODING 79
SWIDTH 875 0
DWIDTH 13 0
BBX 11 10 1 0
BITMAP
1F00
71C0
60C0
C060
C060
C060
C060
60C0
71C0
1F00
ENDCHAR

STARTCHAR P
ENCODING 80
SWIDTH 656 0
DWIDTH 10 0
BBX 8 10 1 0
BITMAP
FC
C6
C3
C3
C6
FC
C0
C0
C0
C0
ENDCHAR

STARTCHAR Q
ENCODING 81
SWIDTH 875 0
DWIDTH 13 0
BBX 11 12 1 -2
BITMAP
1F00
71C0
60C0
C060
C060
C060
C060
60C0
71C0
1F00
0600
0380
ENDCHAR

STARTCHAR R
ENCODING 82
SWIDTH 677 0
DWIDTH 10 0
BBX 9 10 1 0
BITMAP
FC00
C600
C300
C300
C600
FC00
CC00
C600
C300
C180
ENDCHAR

STARTCHAR S
ENCODING 83
SWIDTH 604 0
DWIDTH 9 0
BBX 7 10 1 0
BITMAP
7C
C6
C0
E0
78
1C
0E
06
C6
7C
ENDCHAR

STARTCHAR T
ENCODING 84
SWIDTH 719 0
DWIDTH 11 0
BBX 10 10 0 0
BITMAP
FFC0
0C00
0C00
0C00
0C00
0C00
0C00
0C00
0C00
0C00
ENDCHAR

STARTCHAR U
ENCODING 85
SWIDTH 823 0
DWIDTH 12 0
BBX 10 10 1 0
BITMAP
C0C0
C0C0
C0C0
C0C0
C0C0
C0C0
C0C0
C0C0
6180
3F00
ENDCHAR

STARTCHAR V
ENCODING 86
SWIDTH 719 0
DWIDTH 11 0
BBX 9 10 1 0
BITMAP
C180
C180
6300
6300
3600
3600
1C00
1C00
0800
0800
ENDCHAR

STARTCHAR W
ENCODING 87
SWIDTH 1167 0
DWIDTH 18 0
BBX 16 10 1 0
BITMAP
C183
C183
63C6
63C6
366C
366C
1C38
1C38
0810
0810
ENDCHAR

STARTCHAR X
ENCODING 88
SWIDTH 813 0
DWIDTH 12 0
BBX 11 10 0 0
BITMAP
C060
60C0
3180
1B00
0E00
0E00
1B00
3180
60C0
C060
ENDCHAR

STARTCHAR Y
ENCODING 89
SWIDTH 708 0
DWIDTH 11 0
BBX 10 10 0 0
BITMAP
C0C0
6180
3300
1E00
0C00
0C00
0C00
0C00
0C00
0C00
ENDCHAR

STARTCHAR Z
ENCODING 90
SWIDTH 698 0
DWIDTH 10 0
BBX 8 10 1 0
BITMAP
FF
03
06
0C
18
18
30
60
C0
FF
ENDCHAR

STARTCHAR bracketleft
ENCODING 91
SWIDTH 438 0
DWIDTH 7 0
BBX 4 13 2 -3
BITMAP
F0
C0
C0
C0
C0
C0
C0
C0
C0
C0
C0
C0
F0
ENDCHAR

STARTCHAR backslash
ENCODING 92
SWIDTH 281 0
DWIDTH 4 0
BBX 4 10 0 0
BITMAP
80
80
40
40
40
20
20
20
10
10
ENDCHAR

STARTCHAR bracketright
ENCODING 93
SWIDTH 438 0
DWIDTH 7 0
BBX 4 13 1 -3
BITMAP
F0
30
30
30
30
30
30
30
30
30
30
30
F0
ENDCHAR

STARTCHAR asciicircum
ENCODING 94
SWIDTH 584 0
DWIDTH 9 0
BBX 7 6 1 4
BITMAP
10
28
28
44
44
82
ENDCHAR

STARTCHAR underscore
ENCODING 95
SWIDTH 500 0
DWIDTH 8 0
BBX 8 1 0 -2
BITMAP
FF
ENDCHAR

STARTCHAR quoteleft
ENCODING 96
SWIDTH 271 0
DWIDTH 4 0
BBX 2 4 1 7
BITMAP
40
80
C0
C0
ENDCHAR

STARTCHAR a
ENCODING 97
SWIDTH 531 0
DWIDTH 8 0
BBX 7 7 1 0
BITMAP
78
CC
0C
7C
CC
CC
F6
ENDCHAR

STARTCHAR b
ENCODING 98
SWIDTH 583 0
DWIDTH 9 0
BBX 7 10 1 0
BITMAP
C0
C0
C0
DC
E6
C6
C6
C6
C6
FC
ENDCHAR

STARTCHAR c
ENCODING 99
SWIDTH 500 0
DWIDTH 8 0
BBX 6 7 1 0
BITMAP
78
CC
C0
C0
C0
CC
78
ENDCHAR

STARTCHAR d
ENCODING 100
SWIDTH 583 0
DWIDTH 9 0
BBX 7 10 1 0
BITMAP
06
06
06
7E
C6
C6
C6
C6
C6
7E
ENDCHAR

STARTCHAR e
ENCODING 101
SWIDTH 552 0
DWIDTH 8 0
BBX 6 7 1 0
BITMAP
78
CC
CC
FC
C0
C4
78
ENDCHAR

STARTCHAR f
ENCODING 102
SWIDTH 302 0
DWIDTH 5 0
BBX 5 10 0 0
BITMAP
38
60
60
F0
60
60
60
60
60
60
ENDCHAR

STARTCHAR g
ENCODING 103
SWIDTH 542 0
DWIDTH 8 0
BBX 7 11 1 -3
BITMAP
06
78
CC
CC
78
60
E0
7C
C6
C6
7C
ENDCHAR

STARTCHAR h
ENCODING 104
SWIDTH 583 0
DWIDTH 9 0
BBX 7 10 1 0
BITMAP
C0
C0
C0
DC
E6
C6
C6
C6
C6
C6
ENDCHAR

STARTCHAR i
ENCODING 105
SWIDTH 271 0
DWIDTH 4 0
BBX 2 10 1 0
BITMAP
C0
C0
00
C0
C0
C0
C0
C0
C0
C0
ENDCHAR

STARTCHAR j
ENCODING 106
SWIDTH 271 0
DWIDTH 4 0
BBX 3 13 0 -3
BITMAP
60
60
00
60
60
60
60
60
60
60
60
60
C0
ENDCHAR

STARTCHAR k
ENCODING 107
SWIDTH 552 0
DWIDTH 8 0
BBX 7 10 1 0
BITMAP
C0
C0
C0
C6
CC
D8
F0
D8
CC
C6
ENDCHAR

STARTCHAR l
ENCODING 108
SWIDTH 271 0
DWIDTH 4 0
BBX 2 10 1 0
BITMAP
C0
C0
C0
C0
C0
C0
C0
C0
C0
C0
ENDCHAR

STARTCHAR m
ENCODING 109
SWIDTH 958 0
DWIDTH 14 0
BBX 12 7 1 0
BITMAP
DDE0
E730
C630
C630
C630
C630
C630
ENDCHAR

STARTCHAR n
ENCODING 110
SWIDTH 583 0
DWIDTH 9 0
BBX 7 7 1 0
BITMAP
DC
E6
C6
C6
C6
C6
C6
ENDCHAR

STARTCHAR o
ENCODING 111
SWIDTH 594 0
DWIDTH 9 0
BBX 7 7 1 0
BITMAP
38
6C
C6
C6
C6
6C
38
ENDCHAR

STARTCHAR p
ENCODING 112
SWIDTH 583 0
DWIDTH 9 0
BBX 7 10 1 -3
BITMAP
F8
CC
C6
C6
C6
EC
D8
C0
C0
C0
ENDCHAR

STARTCHAR q
ENCODING 113
SWIDTH 583 0
DWIDTH 9 0
BBX 7 10 1 -3
BITMAP
7E
C6
C6
C6
C6
CE
76
06
06
06
ENDCHAR

STARTCHAR r
ENCODING 114
SWIDTH 448 0
DWIDTH 7 0
BBX 5 7 1 0
BITMAP
D8
F8
E0
C0
C0
C0
C0
ENDCHAR

STARTCHAR s
ENCODING 115
SWIDTH 427 0
DWIDTH 6 0
BBX 5 7 0 0
BITMAP
70
D8
E0
70
38
D8
70
ENDCHAR

STARTCHAR t
ENCODING 116
SWIDTH 406 0
DWIDTH 6 0
BBX 5 9 0 0
BITMAP
20
60
F8
60
60
60
60
78
30
ENDCHAR

STARTCHAR u
ENCODING 117
SWIDTH 583 0
DWIDTH 9 0
BBX 7 7 1 0
BITMAP
C6
C6
C6
C6
C6
CE
76
ENDCHAR

STARTCHAR v
ENCODING 118
SWIDTH 510 0
DWIDTH 8 0
BBX 7 7 0 0
BITMAP
C6
C6
6C
6C
38
38
10
ENDCHAR

STARTCHAR w
ENCODING 119
SWIDTH 781 0
DWIDTH 12 0
BBX 11 7 0 0
BITMAP
C460
C460
6EC0
6AC0
3B80
3B80
1100
ENDCHAR

STARTCHAR x
ENCODING 120
SWIDTH 552 0
DWIDTH 8 0
BBX 6 7 1 0
BITMAP
CC
CC
78
30
78
CC
CC
ENDCHAR

STARTCHAR y
ENCODING 121
SWIDTH 510 0
DWIDTH 8 0
BBX 7 10 0 -3
BITMAP
C6
C6
6C
6C
38
18
30
30
60
60
ENDCHAR

STARTCHAR z
ENCODING 122
SWIDTH 521 0
DWIDTH 8 0
BBX 6 7 1 0
BITMAP
FC
0C
18
30
60
C0
FC
ENDCHAR

STARTCHAR braceleft
ENCODING 123
SWIDTH 385 0
DWIDTH 6 0
BBX 3 14 1 -3
BITMAP
20
40
40
40
40
40
40
80
40
40
40
40
40
20
ENDCHAR

STARTCHAR bar
ENCODING 124
SWIDTH 281 0
DWIDTH 4 0
BBX 1 13 1 -3
BITMAP
80
80
80
80
80
80
80
80
80
80
80
80
80
ENDCHAR

STARTCHAR braceright
ENCODING 125
SWIDTH 385 0
DWIDTH 6 0
BBX 3 14 2 -3
BITMAP
80
40
40
40
40
40
40
20
40
40
40
40
40
80
ENDCHAR

STARTCHAR asciitilde
ENCODING 126
SWIDTH 584 0
DWIDTH 9 0
BBX 8 3 0 3
BITMAP
31
7E
8C
ENDCHAR

STARTCHAR space
ENCODING 160
SWIDTH 278 0
DWIDTH 4 0
BBX 0 0 0 0
BITMAP
ENDCHAR

STARTCHAR exclamdown
ENCODING 161
SWIDTH 271 0
DWIDTH 4 0
BBX 2 10 1 -3
BITMAP
C0
C0
00
C0
C0
C0
C0
C0
C0
C0
ENDCHAR

STARTCHAR cent
ENCODING 162
SWIDTH 500 0
DWIDTH 8 0
BBX 6 13 1 -3
BITMAP
04
04
0C
7C
CC
C8
D8
D0
DC
78
20
60
40
ENDCHAR

STARTCHAR sterling
ENCODING 163
SWIDTH 521 0
DWIDTH 8 0
BBX 6 11 1 0
BITMAP
1C
30
30
30
30
F8
60
60
60
60
FC
ENDCHAR

STARTCHAR currency
ENCODING 164
SWIDTH 552 0
DWIDTH 8 0
BBX 7 7 0 2
BITMAP
BA
7C
C6
C6
C6
7C
BA
ENDCHAR

STARTCHAR yen
ENCODING 165
SWIDTH 552 0
DWIDTH 8 0
BBX 8 11 0 0
BITMAP
C3
66
66
3C
18
FF
18
FF
18
18
18
ENDCHAR

STARTCHAR brokenbar
ENCODING 166
SWIDTH 281 0
DWIDTH 4 0
BBX 1 13 1 -3
BITMAP
80
80
80
80
80
00
00
80
80
80
80
80
80
ENDCHAR

STARTCHAR section
ENCODING 167
SWIDTH 521 0
DWIDTH 8 0
BBX 7 13 0 -3
BITMAP
38
6C
60
30
78
CC
C6
66
3C
18
0C
6C
38
ENDCHAR

STARTCHAR dieresis
ENCODING 168
SWIDTH 333 0
DWIDTH 5 0
BBX 5 2 0 8
BITMAP
D8
D8
ENDCHAR

STARTCHAR copyright
ENCODING 169
SWIDTH 740 0
DWIDTH 11 0
BBX 10 10 0 0
BITMAP
3F00
4080
8C40
9A40
9840
9840
9A40
8C40
4080
3F00
ENDCHAR

STARTCHAR ordfeminine
ENCODING 170
SWIDTH 354 0
DWIDTH 5 0
BBX 4 4 1 6
BITMAP
E0
20
E0
B0
ENDCHAR

STARTCHAR guillemotleft
ENCODING 171
SWIDTH 594 0
DWIDTH 9 0
BBX 8 7 0 0
BITMAP
11
22
44
88
44
22
11
ENDCHAR

STARTCHAR logicalnot
ENCODING 172
SWIDTH 584 0
DWIDTH 9 0
BBX 7 5 1 2
BITMAP
FE
02
02
02
02
ENDCHAR

STARTCHAR hyphen
ENCODING 173
SWIDTH 333 0
DWIDTH 5 0
BBX 3 1 1 3
BITMAP
E0
ENDCHAR

STARTCHAR registered
ENCODING 174
SWIDTH 740 0
DWIDTH 11 0
BBX 10 10 0 0
BITMAP
3F00
4080
9E40
9B40
9B40
9E40
9B40
9B40
4080
3F00
ENDCHAR

STARTCHAR macron
ENCODING 175
SWIDTH 333 0
DWIDTH 5 0
BBX 5 1 0 8
BITMAP
F8
ENDCHAR

STARTCHAR degree
ENCODING 176
SWIDTH 396 0
DWIDTH 6 0
BBX 4 4 1 7
BITMAP
60
90
90
60
ENDCHAR

STARTCHAR plusminus
ENCODING 177
SWIDTH 584 0
DWIDTH 9 0
BBX 7 9 1 0
BITMAP
10
10
10
FE
10
10
10
00
FE
ENDCHAR

STARTCHAR twosuperior
ENCODING 178
SWIDTH 333 0
DWIDTH 5 0
BBX 3 5 1 5
BITMAP
E0
20
E0
80
E0
ENDCHAR

STARTCHAR threesuperior
ENCODING 179
SWIDTH 333 0
DWIDTH 5 0
BBX 4 5 0 5
BITMAP
E0
30
60
30
E0
ENDCHAR

STARTCHAR acute
ENCODING 180
SWIDTH 333 0
DWIDTH 5 0
BBX 3 2 1 9
BITMAP
60
C0
ENDCHAR

STARTCHAR mu
ENCODING 181
SWIDTH 615 0
DWIDTH 9 0
BBX 7 10 1 -3
BITMAP
C6
C6
C6
C6
C6
CE
F6
C0
C0
C0
ENDCHAR

STARTCHAR paragraph
ENCODING 182
SWIDTH 552 0
DWIDTH 8 0
BBX 8 14 0 -3
BITMAP
3F
7F
F6
F6
F6
76
36
36
36
36
36
36
36
36
ENDCHAR

STARTCHAR periodcentered
ENCODING 183
SWIDTH 271 0
DWIDTH 4 0
BBX 2 2 1 5
BITMAP
C0
C0
ENDCHAR

STARTCHAR cedilla
ENCODING 184
SWIDTH 333 0
DWIDTH 5 0
BBX 4 3 0 -3
BITMAP
60
30
E0
ENDCHAR

STARTCHAR onesuperior
ENCODING 185
SWIDTH 333 0
DWIDTH 5 0
BBX 1 5 2 5
BITMAP
80
80
80
80
80
ENDCHAR

STARTCHAR ordmasculine
ENCODING 186
SWIDTH 396 0
DWIDTH 6 0
BBX 4 5 1 5
BITMAP
60
90
90
90
60
ENDCHAR

STARTCHAR guillemotright
ENCODING 187
SWIDTH 594 0
DWIDTH 9 0
BBX 8 7 0 0
BITMAP
88
44
22
11
22
44
88
ENDCHAR

STARTCHAR onequarter
ENCODING 188
SWIDTH 896 0
DWIDTH 13 0
BBX 10 10 1 0
BITMAP
2040
2080
2100
2200
2400
0880
1180
2280
47C0
8080
ENDCHAR

STARTCHAR onehalf
ENCODING 189
SWIDTH 896 0
DWIDTH 13 0
BBX 10 10 1 0
BITMAP
2040
2080
2100
2200
2400
09C0
1040
20C0
4100
81C0
ENDCHAR

STARTCHAR threequarters
ENCODING 190
SWIDTH 896 0
DWIDTH 13 0
BBX 10 10 2 0
BITMAP
E040
1080
6100
1200
E400
0880
1180
2280
47C0
8080
ENDCHAR

STARTCHAR questiondown
ENCODING 191
SWIDTH 375 0
DWIDTH 6 0
BBX 4 10 1 -3
BITMAP
60
60
00
20
20
60
E0
C0
D0
60
ENDCHAR

STARTCHAR Agrave
ENCODING 192
SWIDTH 781 0
DWIDTH 12 0
BBX 11 13 0 0
BITMAP
0C00
0600
0000
0E00
0E00
1B00
1B00
3180
3180
7FC0
60C0
C060
C060
ENDCHAR

STARTCHAR Aacute
ENCODING 193
SWIDTH 781 0
DWIDTH 12 0
BBX 11 13 0 0
BITMAP
0300
0600
0000
0E00
0E00
1B00
1B00
3180
3180
7FC0
60C0
C060
C060
ENDCHAR

STARTCHAR Acircumflex
ENCODING 194
SWIDTH 781 0
DWIDTH 12 0
BBX 11 14 0 0
BITMAP
0400
0E00
1B00
0000
0E00
0E00
1B00
1B00
3180
3180
7FC0
60C0
C060
C060
ENDCHAR

STARTCHAR Atilde
ENCODING 195
SWIDTH 781 0
DWIDTH 12 0
BBX 11 13 0 0
BITMAP
0E80
1700
0000
0E00
0E00
1B00
1B00
3180
3180
7FC0
60C0
C060
C060
ENDCHAR

STARTCHAR Adieresis
ENCODING 196
SWIDTH 781 0
DWIDTH 12 0
BBX 11 13 0 0
BITMAP
1B00
1B00
0000
0E00
0E00
1B00
1B00
3180
3180
7FC0
60C0
C060
C060
ENDCHAR

STARTCHAR Aring
ENCODING 197
SWIDTH 781 0
DWIDTH 12 0
BBX 11 14 0 0
BITMAP
0400
0A00
0400
0000
0E00
0E00
1B00
1B00
3180
3180
7FC0
60C0
C060
C060
ENDCHAR

STARTCHAR AE
ENCODING 198
SWIDTH 1073 0
DWIDTH 16 0
BBX 13 10 1 0
BITMAP
03F8
0780
0D80
0D80
1980
3FF8
3180
6180
6180
C1F8
ENDCHAR

STARTCHAR Ccedilla
ENCODING 199
SWIDTH 771 0
DWIDTH 12 0
BBX 10 13 1 -3
BITMAP
1F80
70C0
6000
C000
C000
C000
C000
6000
70C0
1F80
0C00
0600
1C00
ENDCHAR

STARTCHAR Egrave
ENCODING 200
SWIDTH 635 0
DWIDTH 10 0
BBX 7 13 1 0
BITMAP
30
18
00
FE
C0
C0
C0
FE
C0
C0
C0
C0
FE
ENDCHAR

STARTCHAR Eacute
ENCODING 201
SWIDTH 635 0
DWIDTH 10 0
BBX 7 13 1 0
BITMAP
0C
18
00
FE
C0
C0
C0
FE
C0
C0
C0
C0
FE
ENDCHAR

STARTCHAR Ecircumflex
ENCODING 202
SWIDTH 635 0
DWIDTH 10 0
BBX 7 14 1 0
BITMAP
10
38
6C
00
FE
C0
C0
C0
FE
C0
C0
C0
C0
FE
ENDCHAR

STARTCHAR Edieresis
ENCODING 203
SWIDTH 635 0
DWIDTH 10 0
BBX 7 13 1 0
BITMAP
66
66
00
FE
C0
C0
C0
FE
C0
C0
C0
C0
FE
ENDCHAR

STARTCHAR Igrave
ENCODING 204
SWIDTH 333 0
DWIDTH 5 0
BBX 3 13 0 0
BITMAP
C0
60
00
60
60
60
60
60
60
60
60
60
60
ENDCHAR

STARTCHAR Iacute
ENCODING 205
SWIDTH 333 0
DWIDTH 5 0
BBX 3 13 1 0
BITMAP
60
C0
00
C0
C0
C0
C0
C0
C0
C0
C0
C0
C0
ENDCHAR

STARTCHAR Icircumflex
ENCODING 206
SWIDTH 333 0
DWIDTH 5 0
BBX 5 14 0 0
BITMAP
20
70
D8
00
60
60
60
60
60
60
60
60
60
60
ENDCHAR

STARTCHAR Idieresis
ENCODING 207
SWIDTH 333 0
DWIDTH 5 0
BBX 5 13 0 0
BITMAP
D8
D8
00
60
60
60
60
60
60
60
60
60
60
ENDCHAR

STARTCHAR Eth
ENCODING 208
SWIDTH 802 0
DWIDTH 12 0
BBX 11 10 0 0
BITMAP
7F00
61C0
60C0
6060
F860
6060
6060
60C0
61C0
7F00
ENDCHAR

STARTCHAR Ntilde
ENCODING 209
SWIDTH 844 0
DWIDTH 13 0
BBX 11 13 1 0
BITMAP
0E80
1700
0000
0000
C060
E060
F060
D860
CC60
C660
C360
C1E0
C0E0
ENDCHAR

STARTCHAR Ograve
ENCODING 210
SWIDTH 875 0
DWIDTH 13 0
BBX 11 13 1 0
BITMAP
0C00
0600
0000
1F00
71C0
60C0
C060
C060
C060
C060
60C0
71C0
1F00
ENDCHAR

STARTCHAR Oacute
ENCODING 211
SWIDTH 875 0
DWIDTH 13 0
BBX 11 13 1 0
BITMAP
0300
0600
0000
1F00
71C0
60C0
C060
C060
C060
C060
60C0
71C0
1F00
ENDCHAR

STARTCHAR Ocircumflex
ENCODING 212
SWIDTH 875 0
DWIDTH 13 0
BBX 11 14 1 0
BITMAP
0400
0E00
1B00
0000
1F00
71C0
60C0
C060
C060
C060
C060
60C0
71C0
1F00
ENDCHAR

STARTCHAR Otilde
ENCODING 213
SWIDTH 875 0
DWIDTH 13 0
BBX 11 13 1 0
BITMAP
0E80
1700
0000
1F00
71C0
60C0
C060
C060
C060
C060
60C0
71C0
1F00
ENDCHAR

STARTCHAR Odieresis
ENCODING 214
SWIDTH 875 0
DWIDTH 13 0
BBX 11 13 1 0
BITMAP
1B00
1B00
0000
1F00
71C0
60C0
C060
C060
C060
C060
60C0
71C0
1F00
ENDCHAR

STARTCHAR multiply
ENCODING 215
SWIDTH 584 0
DWIDTH 9 0
BBX 7 7 1 2
BITMAP
82
44
28
10
28
44
82
ENDCHAR

STARTCHAR Oslash
ENCODING 216
SWIDTH 875 0
DWIDTH 13 0
BBX 11 11 1 -1
BITMAP
1F60
71C0
61C0
C360
C660
CC60
D860
70C0
71C0
7F00
C000
ENDCHAR

STARTCHAR Ugrave
ENCODING 217
SWIDTH 823 0
DWIDTH 12 0
BBX 10 13 1 0
BITMAP
0C00
0600
0000
C0C0
C0C0
C0C0
C0C0
C0C0
C0C0
C0C0
C0C0
6180
3F00
ENDCHAR

STARTCHAR Uacute
ENCODING 218
SWIDTH 823 0
DWIDTH 12 0
BBX 10 13 1 0
BITMAP
0600
0C00
0000
C0C0
C0C0
C0C0
C0C0
C0C0
C0C0
C0C0
C0C0
6180
3F00
ENDCHAR

STARTCHAR Ucircumflex
ENCODING 219
SWIDTH 823 0
DWIDTH 12 0
BBX 10 14 1 0
BITMAP
0400
0E00
1B00
0000
C0C0
C0C0
C0C0
C0C0
C0C0
C0C0
C0C0
C0C0
6180
3F00
ENDCHAR

STARTCHAR Udieresis
ENCODING 220
SWIDTH 823 0
DWIDTH 12 0
BBX 10 13 1 0
BITMAP
3300
3300
0000
C0C0
C0C0
C0C0
C0C0
C0C0
C0C0
C0C0
C0C0
6180
3F00
ENDCHAR

STARTCHAR Yacute
ENCODING 221
SWIDTH 708 0
DWIDTH 11 0
BBX 10 13 0 0
BITMAP
0300
0600
0000
C0C0
6180
3300
1E00
0C00
0C00
0C00
0C00
0C00
0C00
ENDCHAR

STARTCHAR Thorn
ENCODING 222
SWIDTH 656 0
DWIDTH 10 0
BBX 8 10 1 0
BITMAP
C0
C0
FC
C6
C3
C3
C6
FC
C0
C0
ENDCHAR

STARTCHAR germandbls
ENCODING 223
SWIDTH 604 0
DWIDTH 9 0
BBX 7 10 1 0
BITMAP
3C
66
C6
C6
DC
C6
C6
C6
C6
DC
ENDCHAR

STARTCHAR agrave
ENCODING 224
SWIDTH 531 0
DWIDTH 8 0
BBX 7 10 1 0
BITMAP
60
30
00
78
CC
0C
7C
CC
CC
F6
ENDCHAR

STARTCHAR aacute
ENCODING 225
SWIDTH 531 0
DWIDTH 8 0
BBX 7 10 1 0
BITMAP
18
30
00
78
CC
0C
7C
CC
CC
F6
ENDCHAR

STARTCHAR acircumflex
ENCODING 226
SWIDTH 531 0
DWIDTH 8 0
BBX 7 11 1 0
BITMAP
10
38
6C
00
78
CC
0C
7C
CC
CC
F6
ENDCHAR

STARTCHAR atilde
ENCODING 227
SWIDTH 531 0
DWIDTH 8 0
BBX 7 10 1 0
BITMAP
74
B8
00
78
CC
0C
7C
CC
CC
F6
ENDCHAR

STARTCHAR adieresis
ENCODING 228
SWIDTH 531 0
DWIDTH 8 0
BBX 7 10 1 0
BITMAP
6C
6C
00
78
CC
0C
7C
CC
CC
F6
ENDCHAR

STARTCHAR aring
ENCODING 229
SWIDTH 531 0
DWIDTH 8 0
BBX 7 11 1 0
BITMAP
10
28
10
00
78
CC
0C
7C
CC
CC
F6
ENDCHAR

STARTCHAR ae
ENCODING 230
SWIDTH 781 0
DWIDTH 12 0
BBX 10 7 1 0
BITMAP
7B80
CCC0
0CC0
7FC0
CC00
CC40
F780
ENDCHAR

STARTCHAR ccedilla
ENCODING 231
SWIDTH 500 0
DWIDTH 8 0
BBX 6 10 1 -3
BITMAP
78
CC
C0
C0
C0
CC
78
30
18
70
ENDCHAR

STARTCHAR egrave
ENCODING 232
SWIDTH 552 0
DWIDTH 8 0
BBX 6 10 1 0
BITMAP
30
18
00
78
CC
CC
FC
C0
C0
7C
ENDCHAR

STARTCHAR eacute
ENCODING 233
SWIDTH 552 0
DWIDTH 8 0
BBX 6 10 1 0
BITMAP
18
30
00
78
CC
CC
FC
C0
C4
78
ENDCHAR

STARTCHAR ecircumflex
ENCODING 234
SWIDTH 552 0
DWIDTH 8 0
BBX 6 11 1 0
BITMAP
10
38
6C
00
78
CC
CC
FC
C0
C4
78
ENDCHAR

STARTCHAR edieresis
ENCODING 235
SWIDTH 552 0
DWIDTH 8 0
BBX 6 10 1 0
BITMAP
6C
6C
00
78
CC
CC
FC
C0
C4
78
ENDCHAR

STARTCHAR igrave
ENCODING 236
SWIDTH 271 0
DWIDTH 4 0
BBX 3 10 0 0
BITMAP
C0
60
00
60
60
60
60
60
60
60
ENDCHAR

STARTCHAR iacute
ENCODING 237
SWIDTH 271 0
DWIDTH 4 0
BBX 3 10 1 0
BITMAP
60
C0
00
C0
C0
C0
C0
C0
C0
C0
ENDCHAR

STARTCHAR icircumflex
ENCODING 238
SWIDTH 271 0
DWIDTH 4 0
BBX 5 11 0 0
BITMAP
20
70
D8
00
60
60
60
60
60
60
60
ENDCHAR

STARTCHAR idieresis
ENCODING 239
SWIDTH 271 0
DWIDTH 4 0
BBX 5 10 0 0
BITMAP
D8
D8
00
60
60
60
60
60
60
60
ENDCHAR

STARTCHAR eth
ENCODING 240
SWIDTH 615 0
DWIDTH 9 0
BBX 7 11 1 0
BITMAP
64
38
70
18
3C
6C
C6
C6
C6
6C
38
ENDCHAR

STARTCHAR ntilde
ENCODING 241
SWIDTH 583 0
DWIDTH 9 0
BBX 7 10 1 0
BITMAP
3A
5C
00
DC
E6
C6
C6
C6
C6
C6
ENDCHAR

STARTCHAR ograve
ENCODING 242
SWIDTH 594 0
DWIDTH 9 0
BBX 7 10 1 0
BITMAP
30
18
00
38
6C
C6
C6
C6
6C
38
ENDCHAR

STARTCHAR oacute
ENCODING 243
SWIDTH 594 0
DWIDTH 9 0
BBX 7 10 1 0
BITMAP
0C
18
00
38
6C
C6
C6
C6
6C
38
ENDCHAR

STARTCHAR ocircumflex
ENCODING 244
SWIDTH 594 0
DWIDTH 9 0
BBX 7 11 1 0
BITMAP
10
38
6C
00
38
6C
C6
C6
C6
6C
38
ENDCHAR

STARTCHAR otilde
ENCODING 245
SWIDTH 594 0
DWIDTH 9 0
BBX 7 10 1 0
BITMAP
3A
5C
00
38
6C
C6
C6
C6
6C
38
ENDCHAR

STARTCHAR odieresis
ENCODING 246
SWIDTH 594 0
DWIDTH 9 0
BBX 7 10 1 0
BITMAP
6C
6C
00
38
6C
C6
C6
C6
6C
38
ENDCHAR

STARTCHAR divide
ENCODING 247
SWIDTH 584 0
DWIDTH 9 0
BBX 8 7 0 2
BITMAP
18
00
00
FF
00
00
18
ENDCHAR

STARTCHAR oslash
ENCODING 248
SWIDTH 594 0
DWIDTH 9 0
BBX 7 7 1 0
BITMAP
3A
6C
CE
D6
E6
6C
B8
ENDCHAR

STARTCHAR ugrave
ENCODING 249
SWIDTH 583 0
DWIDTH 9 0
BBX 7 10 1 0
BITMAP
30
18
00
C6
C6
C6
C6
C6
CE
76
ENDCHAR

STARTCHAR uacute
ENCODING 250
SWIDTH 583 0
DWIDTH 9 0
BBX 7 10 1 0
BITMAP
0C
18
00
C6
C6
C6
C6
C6
CE
76
ENDCHAR

STARTCHAR ucircumflex
ENCODING 251
SWIDTH 583 0
DWIDTH 9 0
BBX 7 11 1 0
BITMAP
10
38
6C
00
C6
C6
C6
C6
C6
CE
76
ENDCHAR

STARTCHAR udieresis
ENCODING 252
SWIDTH 583 0
DWIDTH 9 0
BBX 7 10 1 0
BITMAP
6C
6C
00
C6
C6
C6
C6
C6
CE
76
ENDCHAR

STARTCHAR yacute
ENCODING 253
SWIDTH 510 0
DWIDTH 8 0
BBX 7 13 0 -3
BITMAP
18
30
00
C6
C6
6C
6C
38
18
30
30
60
60
ENDCHAR

STARTCHAR thorn
ENCODING 254
SWIDTH 583 0
DWIDTH 9 0
BBX 7 13 1 -3
BITMAP
C0
C0
C0
D8
EC
C6
C6
C6
EC
D8
C0
C0
C0
ENDCHAR

STARTCHAR ydieresis
ENCODING 255
SWIDTH 510 0
DWIDTH 8 0
BBX 7 13 0 -3
BITMAP
6C
6C
00
C6
C6
6C
6C
38
18
30
30
60
60
ENDCHAR
ENDFONT
